<?xml version="1.0" standalone="no"?>
<!DOCTYPE svg PUBLIC "-//W3C//DTD SVG 20010904//EN"
 "http://www.w3.org/TR/2001/REC-SVG-20010904/DTD/svg10.dtd">
<svg version="1.0" xmlns="http://www.w3.org/2000/svg"
 width="1920.000000pt" height="1080.000000pt" viewBox="0 0 1920.000000 1080.000000"
 preserveAspectRatio="xMidYMid meet">

<g transform="translate(0.000000,1080.000000) scale(0.100000,-0.100000)"
fill="#000000" stroke="none">
<path d="M6013 9278 c6 -16 1756 -2820 1766 -2831 4 -4 134 222 289 503 l282
510 -549 912 -549 913 -622 3 c-497 2 -621 0 -617 -10z"/>
<path d="M10324 6964 c-769 -1268 -1403 -2316 -1408 -2329 -8 -19 35 -102 270
-528 213 -386 282 -503 291 -494 16 17 3483 5639 3483 5649 0 4 -278 8 -618 8
l-619 0 -1399 -2306z"/>
<path d="M8286 3190 c-151 -46 -211 -257 -123 -432 23 -47 58 -89 140 -168
126 -121 157 -172 157 -261 0 -71 -19 -98 -75 -106 -64 -8 -89 18 -95 104 l-5
68 -82 3 -83 3 0 -64 c0 -123 41 -206 124 -250 60 -31 204 -31 262 0 96 51
141 148 131 284 -8 122 -34 168 -185 323 -141 144 -158 173 -149 259 7 76 55
106 121 76 30 -14 36 -28 45 -99 l6 -55 80 0 80 0 -1 60 c-1 33 -7 80 -14 105
-16 58 -89 133 -145 149 -46 13 -147 13 -189 1z"/>
<path d="M10946 3186 c-57 -21 -87 -46 -121 -101 l-30 -48 -3 -383 c-2 -244 1
-398 8 -422 5 -22 23 -57 39 -79 83 -114 305 -124 407 -19 66 70 69 89 69 506
0 360 0 366 -23 415 -46 100 -105 137 -227 142 -53 2 -93 -2 -119 -11z m161
-170 l28 -24 3 -348 c2 -238 -1 -356 -8 -375 -22 -51 -91 -64 -137 -25 l-28
24 0 362 0 362 28 24 c36 31 78 31 114 0z"/>
<path d="M7200 3168 c0 -7 18 -132 40 -278 91 -598 120 -792 120 -801 0 -5 54
-9 120 -9 67 0 120 4 120 9 0 5 36 246 80 536 44 290 80 533 80 541 0 11 -17
14 -80 14 -44 0 -80 -3 -80 -6 0 -29 -103 -784 -109 -799 -5 -13 -14 28 -26
120 -10 77 -34 262 -54 410 l-36 270 -87 3 c-67 2 -88 0 -88 -10z"/>
<path d="M7850 2630 l0 -550 85 0 85 0 0 550 0 550 -85 0 -85 0 0 -550z"/>
<path d="M8730 2738 c0 -244 3 -460 6 -481 11 -64 63 -138 116 -165 104 -53
254 -36 328 38 68 68 70 82 70 597 l0 453 -85 0 -85 0 0 -445 c0 -304 -3 -452
-11 -468 -21 -47 -89 -61 -130 -28 l-24 19 -5 459 -5 458 -87 3 -88 3 0 -443z"/>
<path d="M9426 2708 c-43 -260 -83 -508 -90 -550 l-13 -78 82 0 83 0 12 88
c18 134 7 123 118 120 l97 -3 14 -102 15 -103 88 0 c48 0 88 2 88 4 0 8 -170
1053 -175 1074 -5 21 -9 22 -124 22 l-118 0 -77 -472z m228 8 c20 -137 36
-253 36 -257 0 -5 -34 -9 -75 -9 -41 0 -75 1 -75 3 0 1 16 114 35 250 19 137
35 254 35 260 0 42 13 -32 44 -247z"/>
<path d="M10000 2630 l0 -550 235 0 236 0 -3 78 -3 77 -142 3 -143 3 0 469 0
470 -90 0 -90 0 0 -550z"/>
<path d="M11422 3103 l3 -78 171 -5 171 -5 -136 -465 -137 -465 85 -3 c46 -2
87 1 92 5 4 4 66 215 138 468 120 422 131 467 131 543 l0 82 -260 0 -261 0 3
-77z"/>
<path d="M7294 1870 c-45 -14 -69 -45 -69 -92 0 -53 34 -83 106 -93 56 -8 109
-47 109 -80 0 -44 -52 -85 -109 -85 -32 0 -91 43 -91 66 0 8 -4 14 -10 14 -13
0 -13 -6 5 -39 30 -59 128 -72 184 -25 64 53 25 148 -65 160 -56 8 -93 24
-104 45 -31 56 12 119 80 119 52 0 76 -13 100 -53 17 -26 20 -28 20 -11 0 29
-51 74 -91 79 -19 2 -48 0 -65 -5z"/>
<path d="M11770 1869 c-46 -18 -70 -50 -70 -90 0 -50 40 -84 111 -94 90 -13
130 -83 75 -134 -49 -46 -131 -36 -166 21 -16 27 -20 29 -20 12 0 -44 84 -91
139 -77 67 16 103 71 82 126 -14 35 -49 56 -112 66 -57 9 -99 44 -99 82 0 35
53 79 95 79 48 0 93 -25 101 -55 3 -14 10 -25 16 -25 11 0 1 38 -16 59 -14 17
-69 41 -93 40 -10 0 -29 -5 -43 -10z"/>
<path d="M10951 1860 c-92 -22 -152 -120 -131 -214 16 -70 75 -127 145 -140
90 -17 197 57 210 147 14 90 -45 182 -132 206 -42 12 -45 12 -92 1z m119 -30
c60 -31 85 -73 85 -147 0 -66 -16 -98 -67 -136 -35 -26 -114 -33 -159 -14 -86
36 -124 151 -77 232 45 77 139 105 218 65z"/>
<path d="M8003 1853 l47 -4 0 -170 c0 -106 4 -169 10 -169 6 0 10 63 10 169
l0 170 48 4 c26 2 0 3 -58 3 -58 0 -84 -1 -57 -3z"/>
<path d="M8670 1738 c0 -138 16 -190 69 -221 63 -37 158 -11 193 54 15 28 18
55 16 164 l-2 130 -5 -132 c-7 -148 -17 -173 -84 -206 -47 -24 -104 -10 -141
34 -25 29 -26 35 -26 165 0 83 -4 134 -10 134 -6 0 -10 -47 -10 -122z"/>
<path d="M9480 1685 c0 -110 4 -175 10 -175 6 0 10 64 10 171 l0 171 65 -4
c69 -4 101 -21 138 -70 22 -29 33 -108 23 -162 -8 -40 -55 -92 -89 -99 -18 -4
-17 -5 6 -6 78 -3 133 138 92 237 -34 81 -85 112 -185 112 l-70 0 0 -175z"/>
<path d="M10270 1685 c0 -110 4 -175 10 -175 6 0 10 65 10 175 0 110 -4 175
-10 175 -6 0 -10 -65 -10 -175z"/>
</g>
</svg>
